<svg width="128" height="128" viewBox="0 0 128 128" fill="none" xmlns="http://www.w3.org/2000/svg">
<g clip-path="url(#clip0_13_58)">
<path d="M50.7813 47.6C51.5813 48.56 52.1413 49.3333 52.4613 49.92C52.7813 50.5067 52.9413 51.0667 52.9413 51.6C52.9413 52.24 52.5146 52.9867 51.6613 53.84C50.8613 54.6933 50.0613 55.12 49.2613 55.12C48.1946 55.12 47.3413 54.96 46.7013 54.64C46.0613 54.32 45.5279 53.8133 45.1013 53.12C44.2479 51.84 43.2079 50.7467 41.9813 49.84C40.7546 48.88 38.8346 48.4 36.2213 48.4C33.9813 48.4 31.4213 48.9067 28.5413 49.92C25.7146 50.9333 23.6879 52.1867 22.4613 53.68C21.3946 55.0133 20.4613 57.04 19.6613 59.76C18.9146 62.48 18.5413 65.12 18.5413 67.68C18.5413 70.7733 19.2079 73.6267 20.5413 76.24C21.9279 78.8 23.9013 80.8533 26.4613 82.4C29.0746 83.9467 32.1946 84.72 35.8213 84.72C37.7946 84.72 39.8213 84.3467 41.9013 83.6C44.0346 82.8 45.8746 81.52 47.4213 79.76H47.3413C48.3013 78.7467 49.5013 78.24 50.9413 78.24C51.7946 78.24 52.5946 78.6133 53.3413 79.36C54.1413 80.1067 54.5413 80.8533 54.5413 81.6C54.5413 82.4 54.4079 83.12 54.1413 83.76C53.9279 84.3467 53.5013 85.0133 52.8613 85.76C50.6746 88.2133 48.0879 89.8933 45.1013 90.8C42.1146 91.7067 38.5413 92.16 34.3813 92.16C30.7013 92.16 26.9679 91.28 23.1813 89.52C19.4479 87.76 16.5679 85.6267 14.5413 83.12C13.4746 81.5733 12.4346 79.36 11.4213 76.48C10.4613 73.5467 9.98125 71.1733 9.98125 69.36C9.98125 64.72 10.6746 60.32 12.0613 56.16C13.5013 51.9467 15.6346 48.5867 18.4613 46.08C20.3279 44.3733 23.0213 43.0933 26.5413 42.24C30.0613 41.3867 33.2879 40.96 36.2213 40.96C39.7946 40.96 42.5946 41.4667 44.6213 42.48C46.7013 43.44 48.7546 45.1467 50.7813 47.6ZM115.488 45.44C115.488 48.64 115.381 53.12 115.168 58.88C115.114 60.2667 115.061 61.9467 115.008 63.92C114.954 65.84 114.928 68.08 114.928 70.64C114.928 79.0133 115.381 85.0133 116.288 88.64C116.234 89.9733 115.728 90.9333 114.768 91.52C113.808 92.0533 112.821 92.32 111.808 92.32C109.728 92.32 108.341 91.5733 107.648 90.08C107.008 88.5333 106.688 86.3733 106.688 83.6C106.688 73.3067 106.848 63.7867 107.168 55.04C106.154 57.0667 105.194 59.3067 104.288 61.76C103.434 64.16 102.288 67.52 100.848 71.84C99.3542 76.5333 98.0742 80.24 97.0075 82.96C95.9942 85.68 94.9275 87.7867 93.8075 89.28C93.4875 89.44 92.8475 89.76 91.8875 90.24C90.9808 90.6667 90.1808 90.88 89.4875 90.88C88.3675 90.88 87.5675 90.6933 87.0875 90.32C86.6075 89.9467 86.1808 89.4133 85.8075 88.72C85.4342 88.0267 85.1142 87.4667 84.8475 87.04C83.9942 85.76 82.9008 83.6533 81.5675 80.72C80.2342 77.7867 79.0075 74.72 77.8875 71.52C77.4608 70.4 77.0608 69.3333 76.6875 68.32C76.3675 67.2533 76.0475 66.2667 75.7275 65.36C75.0875 63.44 74.4475 61.6533 73.8075 60C73.2208 58.2933 72.7142 57.0933 72.2875 56.4C72.2875 59.2267 72.2075 62.0533 72.0475 64.88C71.9408 68.2933 71.8875 70.7467 71.8875 72.24C71.8875 73.3067 71.9408 74.7467 72.0475 76.56C72.3675 82.1067 72.5275 85.76 72.5275 87.52C72.5275 88.8 72.2075 89.8933 71.5675 90.8C70.9275 91.7067 69.9408 92.16 68.6075 92.16C67.1675 92.16 65.9942 91.8933 65.0875 91.36C64.2342 90.7733 63.7808 89.92 63.7275 88.8C63.7808 87.8933 63.8075 86.4267 63.8075 84.4C63.8075 80.2933 63.6475 73.76 63.3275 64.8L63.2475 61.92C63.2475 59.8933 63.3542 57.0133 63.5675 53.28C63.6208 52.3733 63.6742 51.3067 63.7275 50.08C63.7808 48.8533 63.8075 47.52 63.8075 46.08C63.8075 44.4267 64.3675 43.2267 65.4875 42.48C66.6075 41.68 68.0475 41.28 69.8075 41.28C70.8742 41.28 71.9408 41.5467 73.0075 42.08C74.1275 42.6133 74.9542 43.3867 75.4875 44.4C76.5542 46.5867 77.6208 49.1733 78.6875 52.16C79.7542 55.0933 81.1942 59.28 83.0075 64.72C84.7142 69.8933 86.0742 73.84 87.0875 76.56C88.1008 79.2267 88.9542 81.04 89.6475 82L91.4875 76.56C97.5142 58.16 101.568 47.28 103.648 43.92C104.128 43.28 104.954 42.72 106.128 42.24C107.354 41.7067 108.501 41.44 109.568 41.44C110.368 41.44 111.541 41.9467 113.088 42.96C114.688 43.92 115.488 44.7467 115.488 45.44Z" fill="#171717"/>
</g>
<defs>
<clipPath id="clip0_13_58">
<rect width="128" height="128" fill="white"/>
</clipPath>
</defs>
</svg>
