<svg width="128" height="128" viewBox="0 0 128 128" fill="none" xmlns="http://www.w3.org/2000/svg">
<g clip-path="url(#clip0_1_20)">
<rect width="128" height="128" fill="#E8E8E8"/>
<g filter="url(#filter0_dd_1_20)">
<path d="M36.2937 88.84C31.6737 88.84 27.6604 87.79 24.2537 85.69C20.8937 83.5433 18.2804 80.58 16.4137 76.8C14.5937 72.9733 13.6837 68.54 13.6837 63.5C13.6837 58.46 14.5937 54.05 16.4137 50.27C18.2804 46.4433 20.8937 43.48 24.2537 41.38C27.6604 39.2333 31.6737 38.16 36.2937 38.16C41.847 38.16 46.3504 39.49 49.8037 42.15C53.257 44.81 55.4737 48.5667 56.4537 53.42H50.0837C49.2904 50.3867 47.7504 47.96 45.4637 46.14C43.2237 44.2733 40.167 43.34 36.2937 43.34C32.9337 43.34 29.9937 44.1567 27.4737 45.79C25.0004 47.3767 23.087 49.6867 21.7337 52.72C20.3804 55.7067 19.7037 59.3 19.7037 63.5C19.7037 67.7 20.3804 71.3167 21.7337 74.35C23.087 77.3367 25.0004 79.6467 27.4737 81.28C29.9937 82.8667 32.9337 83.66 36.2937 83.66C40.167 83.66 43.2237 82.7733 45.4637 81C47.7504 79.18 49.2904 76.7767 50.0837 73.79H56.4537C55.4737 78.5033 53.257 82.19 49.8037 84.85C46.3504 87.51 41.847 88.84 36.2937 88.84ZM65.3726 88V39H72.2326L88.8926 73.51L105.413 39H112.343V88H106.463V49.57L91.0626 81.56H86.6526L71.2526 49.85V88H65.3726Z" fill="black"/>
</g>
</g>
<defs>
<filter id="filter0_dd_1_20" x="9.68372" y="35.16" width="106.659" height="58.68" filterUnits="userSpaceOnUse" color-interpolation-filters="sRGB">
<feFlood flood-opacity="0" result="BackgroundImageFix"/>
<feColorMatrix in="SourceAlpha" type="matrix" values="0 0 0 0 0 0 0 0 0 0 0 0 0 0 0 0 0 0 127 0" result="hardAlpha"/>
<feMorphology radius="1" operator="dilate" in="SourceAlpha" result="effect1_dropShadow_1_20"/>
<feOffset dy="1"/>
<feGaussianBlur stdDeviation="1.5"/>
<feColorMatrix type="matrix" values="0 0 0 0 0 0 0 0 0 0 0 0 0 0 0 0 0 0 0.15 0"/>
<feBlend mode="normal" in2="BackgroundImageFix" result="effect1_dropShadow_1_20"/>
<feColorMatrix in="SourceAlpha" type="matrix" values="0 0 0 0 0 0 0 0 0 0 0 0 0 0 0 0 0 0 127 0" result="hardAlpha"/>
<feOffset dy="1"/>
<feGaussianBlur stdDeviation="1"/>
<feColorMatrix type="matrix" values="0 0 0 0 0 0 0 0 0 0 0 0 0 0 0 0 0 0 0.3 0"/>
<feBlend mode="normal" in2="effect1_dropShadow_1_20" result="effect2_dropShadow_1_20"/>
<feBlend mode="normal" in="SourceGraphic" in2="effect2_dropShadow_1_20" result="shape"/>
</filter>
<clipPath id="clip0_1_20">
<rect width="128" height="128" fill="white"/>
</clipPath>
</defs>
</svg>
